<?xml version="1.0" encoding="utf-8"?>
<svg xmlns="http://www.w3.org/2000/svg" viewBox="415.896 222.392 22.177 7.163" height="12px">
  <path d="M 424.316 222.518 L 421.413 229.445 L 419.519 229.445 L 418.09 223.917 C 418.003 223.576 417.928 223.452 417.664 223.308 C 417.233 223.074 416.522 222.855 415.896 222.719 L 415.939 222.518 L 418.988 222.518 C 419.377 222.518 419.726 222.777 419.814 223.224 L 420.569 227.232 L 422.434 222.517 L 424.317 222.517 L 424.316 222.518 Z M 431.738 227.184 C 431.746 225.356 429.21 225.255 429.227 224.438 C 429.232 224.189 429.469 223.925 429.987 223.858 C 430.244 223.824 430.951 223.799 431.754 224.168 L 432.069 222.699 C 431.533 222.498 430.965 222.394 430.393 222.392 C 428.622 222.392 427.375 223.334 427.365 224.682 C 427.354 225.679 428.255 226.236 428.934 226.567 C 429.632 226.906 429.867 227.124 429.864 227.428 C 429.859 227.893 429.307 228.098 428.791 228.106 C 427.89 228.12 427.368 227.862 426.951 227.669 L 426.626 229.187 C 427.045 229.379 427.818 229.547 428.619 229.555 C 430.502 229.555 431.733 228.625 431.739 227.185 M 436.416 229.447 L 438.073 229.447 L 436.626 222.52 L 435.096 222.52 C 434.752 222.52 434.462 222.72 434.333 223.028 L 431.644 229.447 L 433.526 229.447 L 433.9 228.411 L 436.199 228.411 L 436.416 229.447 Z M 434.416 226.993 L 435.359 224.392 L 435.902 226.993 L 434.416 226.993 Z M 426.877 222.52 L 425.395 229.447 L 423.603 229.447 L 425.085 222.52 L 426.877 222.52 Z" style="fill: rgb(20, 52, 203); stroke-width: 1;"/>
</svg>